<?xml version="1.0" standalone="no"?>
<!DOCTYPE svg PUBLIC "-//W3C//DTD SVG 20010904//EN"
 "http://www.w3.org/TR/2001/REC-SVG-20010904/DTD/svg10.dtd">
<svg version="1.0" xmlns="http://www.w3.org/2000/svg"
 width="1200.000000pt" height="339.000000pt" viewBox="0 0 1200.000000 339.000000"
 preserveAspectRatio="xMidYMid meet">
<metadata>
Created by potrace 1.16, written by Peter Selinger 2001-2019
</metadata>
<g transform="translate(0.000000,339.000000) scale(0.100000,-0.100000)"
fill="#000000" stroke="none">
<path d="M5270 3299 c-313 -11 -320 -12 -320 -44 0 -14 -1 -25 -3 -25 -1 0
-30 10 -62 22 -83 30 -247 36 -350 13 -109 -24 -223 -84 -300 -158 l-64 -62 5
55 c3 30 6 72 8 93 2 20 1 37 -3 37 -7 0 -488 -52 -662 -71 l-107 -12 -48
-121 c-26 -67 -54 -136 -61 -154 l-13 -33 -48 62 c-55 72 -130 121 -217 144
-98 25 -224 18 -494 -28 l-244 -42 -26 -73 c-15 -40 -31 -72 -37 -71 -5 1 -38
16 -73 32 -53 25 -80 31 -162 35 -89 4 -123 0 -366 -49 -172 -34 -272 -58
-281 -68 -27 -30 -1242 -2716 -1229 -2719 18 -3 981 236 985 245 1 4 94 223
206 487 l203 478 92 38 c50 22 91 36 91 32 0 -4 -80 -225 -178 -492 -98 -267
-175 -486 -171 -488 4 -2 189 33 411 77 821 163 1417 258 2063 326 206 22 195
18 195 64 l0 38 54 -28 c162 -81 438 -55 621 60 l60 37 -4 -44 -3 -45 103 7
c380 23 634 30 1179 30 725 0 1125 -18 1800 -79 1215 -112 2300 -302 3723
-655 203 -50 372 -90 376 -88 10 4 -1224 2719 -1240 2728 -16 11 -797 163
-1074 209 -887 151 -1669 236 -2660 292 -255 14 -1357 19 -1675 8z m580 -68
l0 -28 -187 -7 c-104 -3 -281 -9 -395 -12 -141 -5 -208 -10 -208 -18 -1 -6
-45 -501 -99 -1101 -54 -600 -97 -1092 -95 -1094 2 -2 103 2 226 8 123 6 348
14 501 17 l277 7 0 -30 0 -30 -277 -6 c-153 -4 -392 -12 -531 -18 -138 -7
-255 -10 -258 -6 -3 3 40 526 97 1161 l103 1155 41 6 c37 5 485 20 708 23 l97
2 0 -29z m944 12 l159 -6 -7 -75 c-3 -41 -6 -156 -7 -256 -1 -210 -10 -187
-29 76 -7 97 -16 182 -20 187 -7 12 -468 31 -752 31 l-177 0 5 -627 c2 -346 7
-840 10 -1099 l6 -471 397 -7 c218 -3 422 -9 454 -13 55 -6 57 -7 57 -36 0
-30 0 -30 -47 -24 -27 4 -244 10 -484 13 l-437 7 -6 521 c-3 287 -8 809 -11
1160 l-5 639 367 -6 c203 -4 439 -10 527 -14z m-1983 -27 c105 -24 151 -59
135 -101 -4 -12 -18 -8 -71 16 -49 23 -85 32 -143 36 -239 17 -433 -95 -536
-309 -120 -251 -102 -451 74 -843 38 -83 70 -159 72 -169 3 -17 -18 -23 -202
-58 -113 -22 -206 -41 -208 -43 -2 -1 -12 -47 -24 -101 -27 -130 -29 -321 -5
-414 49 -183 149 -286 311 -320 151 -31 366 34 499 150 l47 42 0 -40 c0 -35
-6 -45 -37 -71 -55 -46 -159 -97 -241 -120 -205 -57 -368 -27 -495 89 -159
145 -201 414 -121 771 l15 67 194 38 193 37 -25 56 c-106 234 -152 363 -174
495 -39 230 49 499 211 649 137 127 354 185 531 143z m2529 -1 c129 -9 249
-18 265 -20 l31 -5 32 -166 c18 -91 32 -168 30 -170 -2 -2 -14 31 -27 74 -12
42 -31 107 -42 143 l-20 66 -187 12 c-103 6 -228 14 -277 18 l-91 6 -22 -994
c-12 -547 -25 -1040 -28 -1096 -6 -101 -6 -102 17 -107 13 -2 114 -9 224 -16
110 -6 235 -14 278 -17 l78 -6 -7 91 c-6 87 -6 92 13 92 16 0 23 -15 42 -95
13 -52 26 -95 29 -95 37 1 382 -35 400 -41 15 -6 22 -17 22 -34 0 -24 -3 -25
-32 -20 -18 2 -134 14 -258 25 -196 17 -364 30 -774 56 l-99 6 7 157 c3 86 15
586 26 1111 12 525 23 974 26 998 l5 42 52 0 c29 0 158 -7 287 -15z m655 -55
c121 -11 285 -28 364 -38 143 -17 144 -17 154 -45 5 -16 7 -30 6 -31 -2 -2
-49 2 -103 9 -152 20 -646 68 -650 64 -2 -2 96 -506 218 -1119 l221 -1115 40
-7 c22 -4 137 -19 255 -33 238 -29 391 -50 686 -95 108 -16 200 -28 202 -25 5
4 -444 1637 -456 1660 -3 7 -2 7 5 0 10 -11 387 -1204 484 -1535 40 -138 53
-196 44 -198 -6 -2 -144 17 -306 42 -312 47 -596 86 -849 114 l-154 17 -233
1170 c-128 644 -233 1176 -233 1184 0 10 10 12 43 7 23 -3 141 -15 262 -26z
m-3869 -42 c-3 -29 -8 -83 -11 -120 -4 -44 -18 -92 -41 -145 l-36 -78 6 65 c3
36 8 109 12 163 l7 97 -34 0 c-50 -1 -529 -56 -535 -62 -7 -7 -921 -2322 -919
-2326 2 -2 135 17 296 42 162 25 305 46 318 48 20 3 28 17 56 93 22 62 38 91
50 93 16 4 17 -2 11 -55 -4 -32 -9 -71 -13 -87 l-5 -29 48 6 c27 3 150 17 274
32 321 36 290 28 290 77 l0 42 30 -29 c26 -25 30 -36 28 -70 l-3 -40 -70 -7
c-314 -33 -898 -113 -1292 -176 -62 -10 -113 -17 -113 -16 0 3 929 2358 967
2450 4 11 94 23 467 64 240 26 218 30 212 -32z m1384 -10 c0 -7 -9 -157 -20
-333 -24 -389 -24 -375 -5 -375 8 0 15 3 16 8 0 4 8 165 17 357 l17 350 158 3
157 3 0 -31 0 -30 -130 0 -130 0 0 -44 c0 -56 -30 -670 -33 -672 -1 -1 -35 -4
-74 -6 l-73 -5 0 51 c0 28 6 161 14 296 8 135 16 274 18 310 l3 64 -125 -3
c-69 -1 -128 -6 -131 -9 -3 -4 -43 -425 -88 -937 -45 -511 -84 -945 -87 -963
l-5 -32 158 6 c87 4 160 9 163 11 3 3 17 214 32 470 15 256 29 468 32 471 3 3
40 7 82 10 l75 5 -5 -69 c-3 -38 -13 -233 -21 -434 -8 -201 -17 -384 -19 -408
l-4 -42 162 2 161 3 12 780 c7 429 13 825 15 880 2 55 6 -307 10 -804 4 -498
5 -907 2 -910 -9 -10 -424 -14 -424 -5 0 5 9 194 20 419 24 505 25 525 5 525
-8 0 -17 -10 -19 -22 -3 -13 -16 -225 -30 -472 -14 -247 -28 -451 -31 -454 -7
-8 -426 -25 -433 -18 -7 8 174 2035 183 2044 4 4 70 9 148 13 78 3 161 6 185
7 28 1 42 -2 42 -10z m913 -135 c4 -82 10 -242 13 -356 6 -164 10 -210 21
-214 8 -3 16 -4 18 -1 2 2 -4 163 -14 358 -10 195 -17 356 -16 358 2 2 87 0
189 -4 l186 -7 5 -31 c7 -47 84 -1029 87 -1116 5 -157 -4 -495 -13 -465 -4 17
-36 372 -70 790 -33 418 -62 761 -62 761 -1 1 -59 4 -129 8 l-128 7 0 -53 c0
-29 7 -172 15 -318 8 -146 15 -284 15 -307 l0 -43 -74 0 -74 0 -6 73 c-3 39
-8 149 -11 242 -3 94 -8 223 -11 288 l-7 117 -129 0 -130 0 7 -957 c4 -527 9
-959 10 -961 1 -2 73 -6 159 -9 l156 -6 0 74 c0 41 -7 236 -15 434 -8 198 -15
379 -15 403 l0 42 75 0 c52 0 77 -4 80 -12 2 -7 14 -220 26 -473 12 -253 23
-462 25 -464 2 -2 68 -7 146 -10 l143 -6 3 -29 4 -29 -173 7 c-95 3 -175 9
-178 12 -4 4 -49 806 -50 912 -1 26 -5 32 -22 32 -21 0 -21 -2 -15 -117 3 -65
10 -251 16 -413 5 -162 12 -324 15 -359 l5 -64 -222 7 c-122 3 -223 8 -224 9
-1 1 -5 460 -9 1020 l-7 1017 190 0 189 0 6 -147z m-1588 93 c85 -39 97 -53
93 -115 l-3 -54 -25 39 c-53 81 -150 115 -275 95 -143 -23 -246 -101 -309
-234 -52 -108 -70 -211 -56 -316 14 -109 59 -246 125 -391 79 -170 112 -258
129 -343 20 -95 20 -122 1 -233 -20 -114 -46 -169 -87 -183 -77 -27 -108 58
-90 244 6 61 9 111 8 112 -3 3 -260 -45 -288 -53 -42 -12 -49 -308 -9 -413 50
-132 118 -181 252 -181 193 0 359 110 458 303 l32 62 -6 -75 c-7 -88 -26 -121
-118 -206 -108 -100 -244 -150 -392 -142 -171 9 -269 108 -307 308 -12 65 -4
261 15 340 l12 54 208 39 c115 22 210 37 212 35 2 -2 -3 -62 -12 -133 -18
-147 -12 -258 12 -234 26 26 48 140 48 244 0 119 -17 178 -123 409 -81 178
-124 310 -140 424 -23 172 35 359 150 485 118 130 336 180 485 113z m3945 4
c185 -25 471 -66 556 -81 50 -9 64 -15 73 -35 16 -36 15 -37 -31 -30 -340 49
-732 105 -734 103 -4 -4 138 -492 145 -499 4 -4 58 -16 121 -25 l115 -18 241
-770 c133 -424 260 -829 283 -901 l41 -131 102 -17 c57 -9 204 -36 328 -60
124 -24 226 -43 227 -42 1 0 -129 379 -288 840 -159 462 -288 841 -286 843 4
3 466 -1206 584 -1527 58 -159 78 -226 69 -228 -7 -2 -130 19 -272 46 -142 28
-316 60 -385 72 l-126 23 -273 871 c-150 479 -278 885 -285 902 -13 31 -13 31
-124 44 -84 10 -114 17 -120 29 -5 9 -45 144 -90 301 -45 157 -85 293 -88 304
-5 16 -1 18 28 13 19 -4 104 -16 189 -27z m-1428 8 c103 -6 191 -14 196 -17 4
-3 81 -251 170 -551 140 -469 170 -583 217 -819 30 -151 54 -276 52 -277 -1
-2 -108 353 -237 787 -129 434 -237 794 -240 798 -5 10 -310 34 -318 26 -4 -3
-41 -1385 -52 -1901 0 -21 5 -22 138 -29 75 -4 146 -8 157 -8 18 -2 19 4 17
148 -1 83 -5 187 -8 233 l-6 83 63 -6 c35 -3 87 -8 115 -11 l50 -5 54 -226
c30 -124 60 -231 66 -238 7 -7 54 -15 106 -19 169 -13 176 -14 180 -48 l5 -30
-51 6 c-28 3 -105 11 -171 17 l-121 11 -59 237 -60 236 -54 3 -54 3 6 -230 c5
-213 5 -231 -11 -231 -59 2 -414 29 -418 32 -3 3 41 1935 46 2036 0 4 30 3
222 -10z m-1522 -130 c-1 -235 -28 -1780 -31 -1782 -2 -2 -64 -6 -136 -10
l-133 -7 0 33 c0 18 9 218 20 443 11 226 20 425 20 443 l0 32 -100 0 c-55 0
-100 -1 -101 -2 0 -2 -13 -213 -28 -470 -15 -258 -31 -471 -35 -475 -12 -12
-266 -20 -266 -8 -1 55 166 1863 173 1873 6 8 41 12 108 12 l99 0 0 -27 c0
-16 -9 -174 -20 -353 -11 -179 -20 -329 -20 -334 0 -9 186 -4 196 6 3 4 13
161 21 350 8 189 17 349 19 356 2 8 33 12 109 12 l105 0 0 -92z m511 20 c1
-40 6 -201 12 -358 l12 -285 94 -8 c52 -4 97 -4 101 0 6 7 -5 294 -24 611 l-7
102 111 0 c109 0 110 0 110 -23 0 -22 130 -1633 145 -1801 l6 -69 -133 7 c-73
4 -135 10 -138 13 -5 4 -48 789 -49 896 l-1 47 -103 0 -104 0 4 -52 c1 -29 7
-188 13 -353 6 -165 13 -353 16 -417 l7 -118 -136 0 -135 0 -6 142 c-3 79 -7
502 -10 941 l-4 797 109 0 109 0 1 -72z m1712 51 l138 -12 126 -259 c70 -142
127 -257 129 -255 1 1 -25 112 -58 245 -33 133 -58 245 -56 248 3 2 52 -1 108
-8 100 -13 104 -14 113 -41 5 -16 7 -30 6 -31 -2 -2 -35 1 -73 6 -37 5 -70 7
-73 4 -3 -3 39 -184 92 -403 54 -219 98 -402 99 -407 0 -6 -6 -11 -15 -13 -11
-3 -68 104 -224 422 -115 235 -212 428 -216 431 -10 6 -210 27 -214 22 -4 -4
382 -1958 387 -1964 7 -7 290 -36 295 -30 4 3 -46 236 -111 518 -79 349 -113
515 -106 522 6 6 13 6 19 1 5 -6 122 -253 259 -550 l250 -540 141 -21 c126
-19 141 -19 137 -5 -7 22 -238 857 -336 1210 -44 161 -78 296 -75 299 3 3 17
2 32 -4 23 -8 30 -22 54 -109 171 -611 409 -1478 407 -1481 -3 -2 -402 56
-404 59 -17 42 -339 735 -340 734 -1 -1 34 -159 78 -350 44 -192 77 -351 74
-354 -6 -6 -415 42 -422 50 -7 6 -414 2044 -414 2070 0 15 6 18 28 13 15 -2
89 -10 165 -17z m-4076 -56 c-3 -32 -22 -294 -43 -582 l-38 -523 -26 -11 c-14
-7 -28 -16 -32 -22 -4 -5 -5 19 -2 55 3 36 23 290 43 565 l36 500 -30 2 c-16
2 -90 -5 -163 -15 l-133 -17 -400 -1013 c-221 -558 -399 -1016 -396 -1018 4
-4 249 29 303 41 14 3 25 18 33 47 7 23 44 133 83 244 l69 201 110 13 c60 7
111 11 113 9 2 -2 -10 -107 -26 -232 -17 -126 -28 -230 -26 -232 4 -4 309 33
315 38 2 2 6 35 9 73 3 38 8 85 11 104 5 34 6 34 25 -30 18 -59 26 -186 12
-200 -3 -2 -104 -16 -224 -30 -155 -18 -220 -23 -220 -15 0 14 48 389 55 428
4 25 2 27 -33 27 -78 0 -72 9 -162 -254 l-83 -243 -234 -34 c-139 -21 -232
-31 -229 -24 2 5 194 492 427 1080 232 589 424 1072 426 1074 3 4 365 48 412
50 23 1 24 -1 18 -56z m-995 36 c119 -26 200 -86 249 -184 l32 -65 -24 -57
-24 -58 -6 51 c-19 153 -127 249 -293 261 -57 4 -125 -3 -308 -32 l-235 -39
-153 -420 c-84 -232 -278 -763 -431 -1181 -153 -418 -276 -761 -274 -763 1 -2
128 22 281 52 339 67 603 116 627 116 14 0 17 -5 12 -22 -4 -13 -10 -26 -14
-30 -4 -4 -106 -26 -226 -48 -121 -23 -343 -66 -493 -96 -151 -31 -276 -54
-278 -51 -3 3 123 355 280 783 156 429 359 986 451 1239 92 253 170 463 174
467 5 6 340 65 456 81 62 8 146 7 197 -4z m6738 -74 c359 -63 915 -176 927
-188 15 -16 1184 -2589 1178 -2595 -2 -2 -190 41 -417 96 -227 56 -516 124
-643 152 -126 28 -259 57 -293 64 -35 8 -65 16 -66 18 -1 2 -62 161 -135 353
-73 193 -284 746 -468 1230 -185 484 -338 888 -341 899 -4 16 -1 17 24 12 16
-3 121 -22 234 -41z m-765 -15 c167 -24 448 -67 482 -75 12 -3 25 -18 32 -36
11 -31 10 -31 -18 -26 -26 6 -408 65 -551 85 -36 6 -66 9 -68 7 -1 -1 12 -52
30 -113 l32 -111 118 -17 118 -18 36 -115 c257 -825 526 -1677 532 -1683 9 -8
334 -70 339 -64 3 2 -135 410 -306 907 -171 496 -310 904 -308 906 2 2 36 -2
75 -9 66 -11 72 -14 82 -42 5 -16 9 -31 7 -32 -1 -2 -19 1 -40 5 -20 5 -37 6
-37 2 0 -3 140 -412 311 -909 171 -497 310 -905 308 -906 -4 -4 -443 77 -469
86 -8 2 -124 355 -295 904 l-282 899 -117 17 c-65 9 -119 18 -120 20 -4 5 -96
332 -96 342 0 4 12 5 28 2 15 -3 95 -15 177 -26z m-5964 -51 c55 -19 100 -58
123 -108 17 -37 20 -64 19 -141 -3 -221 -119 -508 -273 -674 l-57 -61 -17
-185 c-16 -164 -22 -196 -54 -279 -20 -52 -37 -90 -39 -85 -1 5 10 139 26 298
l29 289 30 23 c46 36 136 161 180 249 50 102 98 254 113 362 19 136 -7 210
-89 252 -38 20 -160 15 -337 -15 l-167 -27 -13 -31 c-11 -27 -164 -445 -670
-1831 -47 -127 -69 -201 -62 -203 7 -1 86 13 176 31 l165 33 164 492 c141 423
166 492 183 492 15 0 18 -5 15 -22 -15 -72 -128 -909 -124 -913 3 -4 45 1 94
9 48 9 90 14 92 12 2 -3 -2 -17 -10 -32 -12 -27 -20 -30 -126 -47 -63 -10
-116 -16 -120 -13 -3 4 8 103 24 221 19 140 26 215 19 215 -6 0 -45 -105 -88
-233 l-77 -233 -242 -47 c-132 -26 -243 -46 -245 -43 -2 2 140 397 315 877
176 481 354 971 397 1089 43 118 81 218 85 223 3 4 82 20 176 36 180 31 330
38 385 20z m-852 -50 c66 -34 82 -57 62 -87 -7 -11 -16 -9 -49 13 -55 36 -123
55 -196 54 -34 0 -167 -21 -296 -47 l-235 -47 -17 -35 c-41 -83 -1107 -2434
-1105 -2436 1 -1 161 37 355 85 l354 87 206 486 206 486 40 12 c60 17 198 83
250 119 50 35 54 31 30 -28 -14 -35 -24 -42 -122 -88 -59 -27 -118 -54 -132
-60 -20 -8 -56 -86 -230 -493 l-205 -484 -45 -12 c-177 -47 -802 -195 -806
-191 -4 4 1056 2347 1162 2571 l16 32 256 52 c221 45 269 51 346 48 76 -3 97
-8 155 -37z m2523 9 c8 -15 12 -57 11 -120 -2 -113 -14 -105 122 -83 50 8 93
15 98 15 4 0 7 -13 7 -29 0 -33 10 -29 -177 -57 -68 -10 -123 -21 -123 -25 0
-23 41 -122 112 -274 125 -264 130 -281 121 -384 -4 -47 -9 -77 -11 -66 -15
76 -78 239 -157 410 -121 260 -130 287 -130 405 0 103 16 177 46 209 26 28 65
27 81 -1z m-2575 -131 c15 -8 39 -26 52 -40 22 -25 23 -27 9 -69 l-15 -43 -20
40 c-47 90 -123 97 -412 38 l-184 -38 -488 -1074 c-269 -591 -487 -1076 -485
-1078 4 -4 348 80 362 89 6 4 102 223 214 487 l204 480 83 26 c169 52 310 144
410 265 31 39 58 70 60 70 1 0 -9 -33 -23 -72 -29 -81 -60 -119 -149 -183 -76
-54 -127 -80 -245 -125 l-94 -36 -204 -479 c-111 -264 -205 -481 -207 -483 -5
-5 -519 -131 -521 -129 -3 4 1036 2281 1044 2289 10 10 332 76 422 86 74 9
145 0 187 -21z m5337 -94 c9 -32 166 -741 166 -750 0 -10 -141 -5 -151 6 -7 6
-49 632 -49 719 0 30 4 42 14 42 8 0 17 -8 20 -17z m-4645 -19 c21 -15 23 -22
18 -73 -7 -70 -77 -292 -123 -389 -26 -53 -45 -79 -72 -96 -38 -24 -110 -51
-118 -44 -7 8 195 601 208 610 21 13 62 9 87 -8z m887 -81 c-3 -16 -28 -181
-56 -368 -28 -187 -55 -350 -60 -361 -7 -18 -20 -22 -80 -28 -40 -4 -74 -5
-76 -3 -2 2 51 180 118 396 103 328 126 391 141 391 15 0 17 -5 13 -27z m1222
-30 c-3 -25 -9 -29 -54 -38 l-51 -10 41 -90 c36 -79 41 -98 38 -149 -2 -31 -5
-56 -7 -54 -7 8 -155 328 -155 336 0 8 101 27 163 30 25 2 28 -1 25 -25z
m-847 -138 c18 -74 19 -93 9 -245 -13 -189 -18 -210 -56 -210 -24 0 -26 3 -21
33 3 17 14 147 24 287 9 140 19 246 21 235 2 -11 12 -56 23 -100z m-2207 25
c-1 -41 -15 -88 -53 -183 -114 -285 -158 -347 -264 -381 -32 -10 -60 -16 -63
-14 -3 4 247 605 263 631 2 4 30 7 61 5 l57 -3 -1 -55z m5780 -1065 c20 -79
36 -146 36 -148 0 -1 -18 -1 -39 1 -37 4 -40 2 -44 -25 -2 -15 -5 50 -8 145
-3 123 -1 172 7 172 6 0 28 -65 48 -145z m-4234 18 c-1 -38 -48 -356 -49 -332
-1 15 -8 30 -17 33 -22 8 -51 8 -57 -1 -9 -17 3 20 53 165 48 138 71 182 70
135z m5375 -263 c26 -58 60 -131 76 -164 28 -57 28 -58 6 -52 -12 3 -38 6 -57
7 -19 0 -30 3 -24 5 7 3 -2 58 -26 165 -21 88 -34 156 -30 152 4 -4 29 -55 55
-113z"/>
<path d="M9572 2833 c86 -232 878 -2306 882 -2310 2 -3 85 -22 183 -43 237
-51 598 -136 868 -204 121 -30 220 -54 221 -53 1 1 -251 558 -560 1237 l-561
1234 -235 47 c-265 54 -780 149 -804 149 -14 0 -13 -8 6 -57z m521 -114 c147
-28 311 -61 364 -73 l97 -21 518 -1140 c285 -627 518 -1143 518 -1146 0 -8
-510 117 -519 127 -4 5 -106 242 -227 527 -179 423 -222 517 -237 517 -11 0
-17 -5 -14 -12 164 -393 417 -1011 417 -1017 0 -4 -113 17 -251 48 l-250 56
-420 1100 c-230 605 -419 1103 -419 1106 0 7 24 3 423 -72z"/>
<path d="M9764 2704 c4 -10 181 -473 393 -1029 211 -555 388 -1016 393 -1025
6 -11 64 -28 180 -54 95 -20 174 -35 177 -32 3 3 -88 231 -202 508 -114 276
-209 508 -212 514 -5 13 165 -19 178 -34 3 -4 104 -239 224 -522 120 -283 219
-516 220 -518 3 -4 368 -92 371 -89 1 1 -218 486 -487 1077 l-490 1076 -140
28 c-78 15 -143 25 -145 23 -3 -2 68 -176 157 -386 89 -210 159 -384 156 -387
-5 -6 -157 23 -165 31 -2 2 -76 178 -164 392 -87 213 -160 388 -161 389 -1 1
-56 12 -122 24 -66 12 -131 24 -144 27 -21 5 -23 3 -17 -13z"/>
<path d="M10130 2628 c0 -11 281 -683 289 -691 36 -36 10 39 -119 342 -81 190
-152 347 -158 349 -7 2 -12 2 -12 0z"/>
<path d="M1751 2333 c-13 -27 -201 -474 -201 -480 0 -12 60 77 86 128 31 63
128 301 138 342 7 30 -8 37 -23 10z"/>
</g>
</svg>
